<svg width="42" height="42" viewBox="0 0 42 42" fill="none" xmlns="http://www.w3.org/2000/svg">
<circle cx="21" cy="21" r="21" fill="#0059FD"/>
<path d="M27.9216 18.5848L26.0176 12.9337C25.8597 12.468 25.5732 12.0655 25.1968 11.7806C24.8204 11.4956 24.372 11.3418 23.912 11.3398H22.12C21.504 11.3398 21 11.8832 21 12.5473C21 13.2115 21.504 13.7548 22.12 13.7548H23.912L25.5472 18.5848H20.16L19.7568 17.3773H19.8576C20.4736 17.3773 20.9776 16.834 20.9776 16.1698C20.9776 15.5057 20.4736 14.9623 19.8576 14.9623H16.52C15.904 14.9623 15.4 15.5057 15.4 16.1698C15.4 16.834 15.904 17.3773 16.52 17.3773H17.36L19.3984 23.4148H18.648C18.1552 20.7221 16.0608 18.7297 13.44 18.5969C10.304 18.4279 7.56 21.2413 7.56 24.6223C7.56 28.0033 10.024 30.6598 13.16 30.6598C15.9152 30.6598 18.144 28.6192 18.648 25.8298H23.352C23.8448 28.5226 25.9392 30.5149 28.56 30.6478C31.696 30.8047 34.44 28.0033 34.44 24.6103C34.44 21.2293 31.976 18.5728 28.84 18.5728H27.9216V18.5848ZM16.3184 25.8298C15.848 27.3151 14.5264 28.3414 12.936 28.2328C11.2672 28.1241 9.8784 26.6026 9.8 24.7914C9.7216 22.6783 11.2224 20.9998 13.16 20.9998C14.6496 20.9998 15.8704 22.0021 16.3184 23.4148H14.28C13.664 23.4148 13.16 23.9582 13.16 24.6223C13.16 25.2865 13.664 25.8298 14.28 25.8298H16.3184ZM23.352 23.4148H21.784L20.9664 20.9998H24.36C23.8672 21.7002 23.5088 22.5092 23.352 23.4148ZM28.7056 28.2448C26.9808 28.1724 25.5248 26.5906 25.48 24.7189C25.4576 23.5597 25.9168 22.5454 26.656 21.8692L27.3504 23.922C27.5632 24.5499 28.2016 24.8759 28.784 24.6465C29.3664 24.4171 29.6688 23.7288 29.456 23.1009L28.7504 21.0119L28.7616 20.9998C30.688 20.9515 32.2112 22.5575 32.2112 24.6223C32.2132 25.1121 32.1228 25.5971 31.9455 26.0479C31.7681 26.4988 31.5076 26.906 31.1797 27.2449C30.8517 27.5838 30.4633 27.8471 30.038 28.0191C29.6126 28.191 29.1593 28.2678 28.7056 28.2448Z" fill="white"/>
</svg>
