<svg width="40" height="40" viewBox="0 0 40 40" fill="none" xmlns="http://www.w3.org/2000/svg">
<circle cx="20" cy="20" r="20" fill="#F51212"/>
<path fill-rule="evenodd" clip-rule="evenodd" d="M18.5966 12.1446C19.5056 11.738 20.4957 11.738 21.4047 12.1446L30.1104 16.0396L21.4047 19.9346C20.4957 20.3412 19.5056 20.3412 18.5966 19.9346L14.0541 17.9019C14.7341 17.7173 15.4156 17.5418 16.0984 17.3753C17.3386 17.0714 18.5812 16.7839 19.826 16.5127L20.0746 16.4592L20.1609 16.4408C20.4176 16.3863 20.6468 16.2036 20.7982 15.9331C20.9495 15.6625 21.0105 15.3262 20.9679 14.9982C20.9252 14.6701 20.7823 14.3771 20.5706 14.1837C20.359 13.9902 20.0958 13.9122 19.8391 13.9667L19.7476 13.9868L19.4951 14.042C18.2373 14.3162 16.9816 14.6065 15.7282 14.9129C14.6597 15.1754 13.5414 15.4662 12.6036 15.7454C11.896 15.9577 11.2067 16.185 10.728 16.4141L9.88958 16.0396L18.5966 12.1446ZM8.98579 18.2914L8.00745 17.8534C6.66418 17.2532 6.66418 14.826 8.00745 14.2258L17.9478 9.77919C19.2764 9.18493 20.7236 9.18493 22.0522 9.77919L31.9926 14.2258C33.3358 14.826 33.3358 17.2532 31.9926 17.8534L27.5717 19.831L28.0975 25.2054C28.1428 25.639 28.0985 26.0802 27.9691 26.4852C27.8397 26.8902 27.6296 27.2448 27.3598 27.514C25.2441 29.5695 22.6576 30.6775 20 30.6668C16.7995 30.6668 14.266 28.9366 12.7239 27.5474C12.4313 27.2803 12.2009 26.9167 12.0572 26.4955C11.9135 26.0742 11.8618 25.611 11.9077 25.1552L12.4283 19.831L10.9189 19.1556C10.7338 19.3829 10.6051 19.6747 10.5488 19.9948C10.6622 20.1717 10.7459 20.3766 10.7949 20.5966C10.8439 20.8166 10.857 21.0471 10.8334 21.2738C10.8099 21.5006 10.7502 21.7187 10.658 21.9148C10.5659 22.1108 10.4432 22.2807 10.2977 22.4137L10.3029 22.4438L11.4473 29.0285C11.4728 29.175 11.4722 29.3269 11.4456 29.4731C11.419 29.6193 11.367 29.7559 11.2936 29.8731C11.2202 29.9902 11.1271 30.0847 11.0213 30.1498C10.9155 30.2148 10.7996 30.2486 10.6822 30.2488H8.39198C8.27445 30.2489 8.15842 30.2152 8.05244 30.1503C7.94646 30.0854 7.85324 29.9908 7.77967 29.8737C7.7061 29.7566 7.65405 29.6198 7.62737 29.4735C7.60069 29.3272 7.60006 29.1752 7.62552 29.0285L8.76998 22.4421L8.77652 22.4137C8.62636 22.2764 8.50066 22.1 8.40766 21.8961C8.31467 21.6923 8.2565 21.4656 8.23698 21.2309C8.21746 20.9963 8.23703 20.759 8.2944 20.5347C8.35178 20.3104 8.44565 20.1042 8.56986 19.9296C8.57422 19.8761 8.58033 19.8176 8.58817 19.7541C8.65114 19.24 8.78581 18.7446 8.98579 18.2914ZM14.3222 20.6785L13.854 25.4662C13.8531 25.484 13.854 25.4952 13.8566 25.4996C15.2221 26.73 17.3593 28.1592 20 28.1592C22.6983 28.1592 24.8132 26.8486 26.1513 25.5381V25.5163L25.6778 20.6785L22.0522 22.3C20.7236 22.8943 19.2764 22.8943 17.9478 22.3L14.3222 20.6785Z" fill="white"/>
</svg>
