<svg width="40" height="40" viewBox="0 0 40 40" fill="none" xmlns="http://www.w3.org/2000/svg">
<circle cx="20" cy="20" r="20" fill="#00601D"/>
<path d="M17.3659 26.8449H18.7317V21.2834C19.3008 21.2834 19.7848 21.0808 20.1836 20.6758C20.5824 20.2707 20.7814 19.7781 20.7805 19.1978V15.0267H19.4146V19.1978H18.7317V15.0267H17.3659V19.1978H16.6829V15.0267H15.3171V19.1978C15.3171 19.7771 15.5165 20.2698 15.9153 20.6758C16.3141 21.0818 16.7977 21.2843 17.3659 21.2834V26.8449ZM22.8293 26.8449H24.1951V15.0267C23.4439 15.0267 22.801 15.2992 22.2665 15.8442C21.732 16.3893 21.4643 17.0437 21.4634 17.8074V21.9786H22.8293V26.8449ZM9.17073 31.016V14.3315L20.0976 5.98926L31.0244 14.3315V31.016H9.17073ZM11.9024 28.2352H28.2927V15.7219L20.0976 9.46519L11.9024 15.7219V28.2352Z" fill="white"/>
</svg>
