<svg width="42" height="42" viewBox="0 0 42 42" fill="none" xmlns="http://www.w3.org/2000/svg">
<circle cx="21" cy="21" r="21" fill="#FE12D3"/>
<path d="M21 14.2526L20.4246 14.7902C20.4983 14.869 20.5874 14.9319 20.6864 14.9749C20.7853 15.0178 20.8921 15.04 21 15.04C21.1079 15.04 21.2147 15.0178 21.3137 14.9749C21.4126 14.9319 21.5017 14.869 21.5754 14.7902L21 14.2526ZM18.3057 28.1357C16.7832 26.9009 15.0066 25.2807 13.6164 23.5073C12.2105 21.7149 11.2875 19.8743 11.2875 18.1838H9.7125C9.7125 20.4066 10.899 22.5959 12.3764 24.4796C13.8695 26.3832 15.7469 28.0874 17.3135 29.3589L18.3057 28.1357ZM11.2875 18.1838C11.2875 15.1335 12.6189 13.2488 14.2653 12.603C15.9086 11.9594 18.207 12.4193 20.4246 14.7902L21.5754 13.715C19.068 11.0333 16.1165 10.187 13.691 11.1362C11.2686 12.0854 9.7125 14.6915 9.7125 18.1838H11.2875ZM24.6855 29.3579C26.2532 28.0863 28.1306 26.3822 29.6237 24.4785C31.101 22.5948 32.2875 20.4056 32.2875 18.1817H30.7125C30.7125 19.8743 29.7885 21.7139 28.3836 23.5062C26.9934 25.2797 25.2168 26.8998 23.6943 28.1346L24.6855 29.3579ZM32.2875 18.1817C32.2875 14.6904 30.7314 12.0843 28.308 11.1362C25.8825 10.1859 22.932 11.0312 20.4246 13.7139L21.5754 14.7902C23.793 12.4193 26.0915 11.9583 27.7347 12.602C29.3811 13.2467 30.7125 15.1325 30.7125 18.1817H32.2875ZM17.3135 29.3589C18.647 30.4425 19.5741 31.2374 21 31.2374V29.6624C20.2409 29.6624 19.7684 29.3222 18.3057 28.1357L17.3135 29.3589ZM23.6943 28.1346C22.2317 29.3211 21.7592 29.6624 21 29.6624V31.2374C22.4259 31.2374 23.3531 30.4425 24.6866 29.3589L23.6943 28.1346Z" fill="white"/>
<path d="M27.825 17.85H25.725M25.725 17.85H23.625M25.725 17.85V15.75M25.725 17.85V19.95" stroke="white" stroke-width="1.5" stroke-linecap="round"/>
</svg>
